/* XPM */
static const char * gmain16_xpm[] = {
"15 16 94 2",
"  	c None",
". 	c #3366BB",
"+ 	c #4B78C3",
"@ 	c #7497D0",
"# 	c #7A9BD2",
"$ 	c #5B84C8",
"% 	c #4F7BC4",
"& 	c #C5D3EB",
"* 	c #FEFEFE",
"= 	c #FFFFFF",
"- 	c #F3F6FB",
"; 	c #C4D3ED",
"> 	c #7396D0",
", 	c #5982C7",
"' 	c #F1F4FA",
") 	c #E7EDF8",
"! 	c #FBFCFE",
"~ 	c #F7F9FC",
"{ 	c #C1D2EE",
"] 	c #CCDAF1",
"^ 	c #A5BBE1",
"/ 	c #E2E9F5",
"( 	c #CDDAF1",
"_ 	c #D7E2F4",
": 	c #C3D3EE",
"< 	c #DAE4F4",
"[ 	c #B9CCEB",
"} 	c #90AFE0",
"| 	c #D0DDF2",
"1 	c #7F9FD4",
"2 	c #E8EEF8",
"3 	c #D2DEF2",
"4 	c #ACC3E8",
"5 	c #ADC3E8",
"6 	c #88A9DE",
"7 	c #ABC2E8",
"8 	c #D1DDF2",
"9 	c #3467BB",
"0 	c #C6D5EF",
"a 	c #FCFDFE",
"b 	c #CAD8F0",
"c 	c #DDE6F5",
"d 	c #CBD9F0",
"e 	c #BDCFED",
"f 	c #D8E2F4",
"g 	c #C9D7F0",
"h 	c #EAF0F9",
"i 	c #4A78C5",
"j 	c #C0D4F6",
"k 	c #97B2DD",
"l 	c #EEF3FA",
"m 	c #D3DFF3",
"n 	c #D4E0F3",
"o 	c #C9D8F0",
"p 	c #4473C2",
"q 	c #EFF3F9",
"r 	c #D4DFF3",
"s 	c #BED0ED",
"t 	c #A6BEE6",
"u 	c #B1C6E9",
"v 	c #C4D4EE",
"w 	c #DAE3F2",
"x 	c #CFDCF1",
"y 	c #C8D7F0",
"z 	c #DFE8F6",
"A 	c #C5D5EF",
"B 	c #B3C8EA",
"C 	c #8DACDF",
"D 	c #E2EAF7",
"E 	c #7E9ED4",
"F 	c #CFDCF2",
"G 	c #EBF1F9",
"H 	c #BCCEEC",
"I 	c #C3D2EB",
"J 	c #3F6FC0",
"K 	c #E1E8F5",
"L 	c #F0F4FB",
"M 	c #F9FAFD",
"N 	c #A1B8DF",
"O 	c #92B0E3",
"P 	c #789CD8",
"Q 	c #5882C7",
"R 	c #EEF2F9",
"S 	c #C6D6EF",
"T 	c #CDDBF1",
"U 	c #FBFCFD",
"V 	c #85A3D6",
"W 	c #3769BD",
"X 	c #4675C3",
"Y 	c #C2D1EB",
"Z 	c #D6E1F3",
"` 	c #7194CF",
" .	c #4A77C2",
"..	c #789AD2",
"          . . . . . .         ",
"        . . + @ # $ . . .     ",
"      . % & * = = - ; > . .   ",
"    . , ' = ) ! ~ { ] * ^     ",
"  . . / = ( _ : < [ } _ |     ",
"  . 1 = < 2 3 4 - 5 6 7 8 !   ",
". 9 # = 0 a b c d e f g h =   ",
"i j k = ] l m g n ] { o c =   ",
"  p q = r b n s t u s v ] =   ",
"  . w = ] x y z A B C D = =   ",
"  . E = d F G = = x H = = I J ",
"  . . K F L = < M h m = N O P ",
"    . Q R s h S T b U * V W X ",
"      . % Y x a c Z K ` . .   ",
"        . .  .> ..$ . . .     ",
"            . . . . .         "};
