/* XPM */
static char * gmain48_xpm[] = {
"45 48 270 2",
"  	c None",
". 	c #3366BB",
"+ 	c #3467BB",
"@ 	c #4070BF",
"# 	c #4674C1",
"$ 	c #3F6FBF",
"% 	c #4170BF",
"& 	c #7F9FD4",
"* 	c #B5C7E6",
"= 	c #DEE6F4",
"- 	c #F9FAFD",
"; 	c #FFFFFF",
"> 	c #F8FAFC",
", 	c #DCE5F3",
"' 	c #B2C5E5",
") 	c #7C9DD3",
"! 	c #5982C7",
"~ 	c #B7C9E7",
"{ 	c #FAFBFD",
"] 	c #B3C6E5",
"^ 	c #557FC6",
"/ 	c #4473C0",
"( 	c #B4C7E6",
"_ 	c #FDFDFE",
": 	c #FBFCFE",
"< 	c #F3F6FB",
"[ 	c #FCFDFE",
"} 	c #AFC3E4",
"| 	c #6B90CD",
"1 	c #EDF1F9",
"2 	c #EBF0F9",
"3 	c #A7BFE7",
"4 	c #7DA1DB",
"5 	c #7FA2DC",
"6 	c #E9EEF7",
"7 	c #648BCB",
"8 	c #86A4D6",
"9 	c #D4E0F3",
"0 	c #7DA0DB",
"a 	c #98B4E2",
"b 	c #D8E3F4",
"c 	c #81A3DC",
"d 	c #F4F7FC",
"e 	c #87A5D7",
"f 	c #FEFEFE",
"g 	c #EEF3FA",
"h 	c #CAD8F0",
"i 	c #86A7DE",
"j 	c #F1F5FB",
"k 	c #9BB4DD",
"l 	c #5680C6",
"m 	c #6F93CF",
"n 	c #D6E1F3",
"o 	c #AAC1E7",
"p 	c #A4BDE6",
"q 	c #E0E9F6",
"r 	c #CDDAF1",
"s 	c #9FB9E4",
"t 	c #8DACDF",
"u 	c #DFE8F6",
"v 	c #4976C2",
"w 	c #F0F4FA",
"x 	c #F6F8FC",
"y 	c #9EB9E4",
"z 	c #8BABDF",
"A 	c #B8CBEB",
"B 	c #B2C7E9",
"C 	c #7EA1DB",
"D 	c #EDF1FA",
"E 	c #CEDCF1",
"F 	c #96B3E2",
"G 	c #B0C6E9",
"H 	c #8CABDF",
"I 	c #A5BEE6",
"J 	c #E5ECF7",
"K 	c #C7D6EF",
"L 	c #BFCFE9",
"M 	c #94B1E1",
"N 	c #A6BEE6",
"O 	c #ABC2E8",
"P 	c #C8D7F0",
"Q 	c #E2EAF7",
"R 	c #C7D7EF",
"S 	c #789DDA",
"T 	c #D3DFF2",
"U 	c #B4C9EA",
"V 	c #668CCC",
"W 	c #B6CAEB",
"X 	c #EFF3FA",
"Y 	c #B7CAEB",
"Z 	c #A9C1E7",
"` 	c #7CA0DB",
" .	c #90AFE0",
"..	c #7A9EDA",
"+.	c #DAE4F4",
"@.	c #82A4DC",
"#.	c #83A5DD",
"$.	c #C7D5EC",
"%.	c #D2DEF2",
"&.	c #92B0E1",
"*.	c #ECF1F9",
"=.	c #84A6DD",
"-.	c #96B2E2",
";.	c #DCE6F5",
">.	c #A7BFE6",
",.	c #A3BCE6",
"'.	c #93B0E1",
").	c #80A3DC",
"!.	c #4F7BC4",
"~.	c #87A8DE",
"{.	c #E1E9F6",
"].	c #E9EFF9",
"^.	c #EEF2FA",
"/.	c #DDE6F5",
"(.	c #85A6DD",
"_.	c #D0DDF2",
":.	c #799DDA",
"<.	c #BED0ED",
"[.	c #8EADE0",
"}.	c #8BAADF",
"|.	c #E7EEF8",
"1.	c #93AEDB",
"2.	c #BDCFED",
"3.	c #A0BAE5",
"4.	c #C5D5EF",
"5.	c #F2F5FB",
"6.	c #B1C6E9",
"7.	c #E4EBF7",
"8.	c #C6D5EF",
"9.	c #91AFE1",
"0.	c #799EDA",
"a.	c #B9CCEB",
"b.	c #BCCEEC",
"c.	c #F7F9FC",
"d.	c #CCD9EE",
"e.	c #DBE5F5",
"f.	c #CBD9F0",
"g.	c #F0F4FB",
"h.	c #9AB6E3",
"i.	c #CEDBF1",
"j.	c #DBE4F5",
"k.	c #C1D2EE",
"l.	c #FBFCFD",
"m.	c #8EAAD9",
"n.	c #B9CAE7",
"o.	c #CCDAF1",
"p.	c #FDFEFE",
"q.	c #F9FBFD",
"r.	c #AEC4E8",
"s.	c #E3EBF7",
"t.	c #3467BC",
"u.	c #3668BC",
"v.	c #3769BD",
"w.	c #386ABD",
"x.	c #A2BCE5",
"y.	c #AFC4E9",
"z.	c #A2BBE5",
"A.	c #84A5DD",
"B.	c #E5ECF8",
"C.	c #D9E4F4",
"D.	c #9BB8E7",
"E.	c #D1E2FE",
"F.	c #D3E3FE",
"G.	c #D4E4FF",
"H.	c #92B0E3",
"I.	c #CBD8ED",
"J.	c #88A8DE",
"K.	c #CFDCF1",
"L.	c #B7CBEB",
"M.	c #BACDEC",
"N.	c #9EB8E4",
"O.	c #4675C3",
"P.	c #CEDFFC",
"Q.	c #D5E5FF",
"R.	c #CCDEFB",
"S.	c #4171C1",
"T.	c #7094CF",
"U.	c #EDF2FA",
"V.	c #9BB6E3",
"W.	c #D7E2F4",
"X.	c #B0C5E9",
"Y.	c #7FA2DB",
"Z.	c #80A2DB",
"`.	c #F8FAFD",
" +	c #8FADE0",
".+	c #C0D1ED",
"++	c #7B9FDA",
"@+	c #DEE7F6",
"#+	c #E8EEF8",
"$+	c #CDDBF1",
"%+	c #99B5E3",
"&+	c #B4C8EA",
"*+	c #AAC3ED",
"=+	c #396BBD",
"-+	c #C2D3EE",
";+	c #C4D4EF",
">+	c #9DB7E4",
",+	c #3669BC",
"'+	c #3D6DBE",
")+	c #ECF1F8",
"!+	c #B3C8EA",
"~+	c #DCE5F5",
"{+	c #8AAADF",
"]+	c #89A9DE",
"^+	c #A8C0E7",
"/+	c #9CB5DE",
"(+	c #9DB8E4",
"_+	c #95B2E2",
":+	c #8FAEE0",
"<+	c #EBF1F9",
"[+	c #4372C0",
"}+	c #A8BEE2",
"|+	c #88A9DE",
"1+	c #90AEE0",
"2+	c #95B2E1",
"3+	c #ACC3E8",
"4+	c #D6E0F1",
"5+	c #A3BCE5",
"6+	c #9AB5E3",
"7+	c #C3D3EE",
"8+	c #91AFE0",
"9+	c #E7EDF8",
"0+	c #82A1D5",
"a+	c #C5D3EB",
"b+	c #D5E0F3",
"c+	c #C9D7F0",
"d+	c #DFE7F4",
"e+	c #5781C7",
"f+	c #779BD7",
"g+	c #3C6DBE",
"h+	c #4574C3",
"i+	c #AFC8EF",
"j+	c #CFE0FC",
"k+	c #BCCDE8",
"l+	c #D4DFF3",
"m+	c #83A2D5",
"n+	c #628BCF",
"o+	c #C8DBFA",
"p+	c #4775C1",
"q+	c #EFF3F9",
"r+	c #A1BAE5",
"s+	c #E1E8F5",
"t+	c #3769BC",
"u+	c #6E94D4",
"v+	c #B4CBF1",
"w+	c #5581C9",
"x+	c #6C91CE",
"y+	c #EAF0F9",
"z+	c #D1DDF2",
"A+	c #E0E8F6",
"B+	c #E3EAF5",
"C+	c #5782CA",
"D+	c #9CB8E7",
"E+	c #658DD0",
"F+	c #84A3D6",
"G+	c #C4D4EE",
"H+	c #7B9CD3",
"I+	c #C6D6EF",
"J+	c #7A9BD2",
"K+	c #678DCC",
"L+	c #EBF0F8",
"M+	c #E7EDF7",
"N+	c #6188CA",
"O+	c #B1C4E5",
"P+	c #ABC0E3",
"Q+	c #B0C4E4",
"R+	c #527DC5",
"S+	c #DAE3F2",
"T+	c #D8E2F2",
"U+	c #799AD2",
"                                        . . . . . . . . .                                 ",
"                                . . . . . . . . . . . . . . . .                           ",
"                            . . . . . . . . . . . . . . . . . . . . .                     ",
"                        . . . . . . . . . . . . . . . . . . . . . . . .                   ",
"                      . . . . . . . . . . . + @ # $ + . . . . . . . . . . .               ",
"                    . . . . . . . . % & * = - ; ; ; > , ' ) $ . . . . . . . .             ",
"                  . . . . . . . ! ~ { ; ; ; ; ; ; ; ; ; ; ; > ] ^ . . . . . . .           ",
"                . . . . . . / ( _ ; ; ; ; ; ; ; ; ; ; ; ; ; : < [ } % . . . . . .         ",
"              . . . . . . | 1 ; ; ; ; ; ; ; ; ; ; ; ; ; 2 3 4 5 [ ; 6 7 . . . . .         ",
"            . . . . . . 8 [ ; ; ; ; ; ; ; ; ; ; ; ; ; 9 0 a b c d ; ; { ) . . . .         ",
"          . . . . . . e f ; ; ; ; ; ; ; ; ; ; ; ; ; g 0 h ; ; i j ; ; ; _ k l .           ",
"          . . . . . m [ ; ; ; ; ; f n o p q ; ; ; ; r s ; ; ; t u ; ; ; ; ; ;             ",
"        . . . . . v w ; ; ; ; ; x y z A B C D ; ; ; E F ; ; G H I ; ; ; J K ; ;           ",
"        . . . . . L ; ; ; ; ; - M A [ ; ; N O f P D Q 4 R ; O S S T ; b 4 U ; ;           ",
"      . . . . . V ; ; ; ; ; ; 3 W ; ; X Y Z C - i P { C ` G H  ...H +.@.#.x ; ; ;         ",
"      . . . . . $.; ; ; ; ; %.&.[ ; ; *.=.-.=.;.; ; ; >.,.'.Z S )...a M h ; d ; ;         ",
"      . . . . !.f ; ; ; ; - ~.{.; [ ].; ^.a o R ; ; ; /.(._.:.:...Y <.[._ /.}.|.; ;       ",
"      . . . . 1.; ; ; ; ; 2.3.; ; 4.:.5.6.a M 7.n 8._ ; 9.:.4 0.P ; 3.a.d b.z c.; ;       ",
"    . . . . . d.; ; ; ; - c e.; ; *.f.: ~.0 2.g.t h.{.; i.S ~.j.; ; _.'.k.{ l.; ; ;       ",
"    . . . . . m.n.; ; ; o.i p.; ; ; ; q.[.r.f < }.h.{ d K b._ s.; ; _.[.H _ ; ; ; ; ;     ",
". . . t.u.v.w.. 7 ; ; ; x.y.; ; ; ; _ z.I _ ; ; f ; { @.A.B.: #.C.; >.Z ; ; ; ; ; ; ;     ",
"  . D.E.F.G.H.. I.; ; ; J.K.; ; ; ; L.M { ; ; ; ; ; ; 7.-.d d M.[ ; [ N.T ; ; ; ; ; ;     ",
"  . O.P.Q.R.S.T.; ; ; ; C |.; ; ; ;.5 U.; f r V.V.W.; f X.>.4 S #.6.*.5.H x ; ; ; ; ;     ",
"    . Y.Q.Z.u.= ; ; ; ; c `.; ; p. +.+; f O S J.G ++@+; #+5 Q 5.$+%+` 9 2.&+; ; ; ; ;     ",
"    . v.*+=+e ; ; ; ; ; #._ ; ; C.5 `.; -+@.a r.;+N.%+; a.6.4.P ; ; A >+2.++].; ; ; ;     ",
"      . ,+'+)+; ; ; ; ; @.[ ; ; !+o ; ^.4 ~+{+'.b.).S X &.O S &+; { ]+f.g.%+^+; ; ; ;     ",
"        . /+; ; ; ; ; ; 5 `.; ; (+o.; O Z ; d ; ; _+ +G S C }.Z k.!+:+[ ; `.@+; ; ; ;     ",
"          - ; ; ; ; ; ; c <+; ; 9.u g.` ].; f [ f }.(.S ` K 0 0...S @+; ; ; ; ; ; ; ;     ",
"        . [+}+; ; ; ; ; |+C.; ; 1+Q L.3.; ; o.2+; J.M S h %.S B  .3+; ; ; ; ; ; ; ; ;     ",
"      . . . . 4+; ; ; ; 5+k.; ; 6+K.c /.; ; r L.; r c.~+_ I @.7+@.d ; ; ; ; ; ; ; ;       ",
"      . . . . 1.; ; ; ; 7+x.; ; B =.8+; ; ; ; ; ; ; ; ; { C k.H k.; ; ; ; ; ; ; ; ;   .   ",
"      . . . . !._ ; ; ; 9+5 l.; j.S 8.; ; ; ; ; ; ; ; ; 9 ~./...5.; ; ; ; ; ; ; c.0+. .   ",
"      . . . . . a+; ; ; f ~.b+; f c+`.; ; ; ; ; ; ; ; ; O o.X.>+; ; ; ; ; ; ; d+e+u.f+.   ",
"      . . . . . 7 ; ; ; ; !+y ; ; ; ; ; ; ; ; ; ; ; ; ; 9 { @.$+; ; ; ; ; ; * g+h+i+j++   ",
"        . . . . . k+; ; ; #+:.7.; ; ; ; ; ; #+!+f ; ; ; ; l+C `.; ; ; ; l.m+. n+o+Q.Q.S.. ",
"        . . . . . p+q+; ; ; r+%+p.; ; ; ; ; V.0 o.; ; ; ; x.O ; ; ; ; ; s+t+. u+v+Q.Q.w+. ",
"          . . . . . x+[ ; ; y+5 Y ; ; ; ; z+A.%.~.[ ; ; d ++A+; ; ; ; ; ; B+$ . . C+D+E+. ",
"          . . . . . . F+f ; ; u 5 Y f ; d =.G+f  +E ; ; 8. +f ; ; ; ; ; [ H+. . . . . . . ",
"            . . . . . . 0+l.; ; 7.A.B : N.&.[ ; K.[.[ ; &.I+; ; ; ; ; - J+. . . . . . . . ",
"              . . . . . . K+L+; ; <+]+@.A.<+; ; p.F B M.c `.; ; ; ; M+N+. . . . . .       ",
"                . . . . . . [+O+_ ; d n d ; ; ; ; w 8+i W.; ; ; l.P+$ . . . . . .         ",
"                  . . . . . . . l ( > ; ; ; ; ; ; ; ; ; ; ; c.Q+R+. . . . . . .           ",
"                    . . . . . . . . $ H+O+S+c.; ; ; x T+} U+'+. . . . . . . .             ",
"                      . . . . . . . . . . . . g+[+g+. . . . . . . . . . . .               ",
"                          . . . . . . . . . . . . . . . . . . . . . . .                   ",
"                            . . . . . . . . . . . . . . . . . . . . .                     ",
"                                  . . . . . . . . . . . . . . .                           ",
"                                        . . . . . . . . .                                 "};
