/* XPM */
static char * gmain32_xpm[] = {
"32 32 209 2",
"  	c None",
". 	c #3366BB",
"+ 	c #4775C1",
"@ 	c #81A0D5",
"# 	c #AABFE2",
"$ 	c #C1D0EA",
"% 	c #C7D5EC",
"& 	c #BBCCE8",
"* 	c #9DB5DE",
"= 	c #6D91CE",
"- 	c #386ABC",
"; 	c #5A83C8",
"> 	c #BFCFE9",
", 	c #FCFDFE",
"' 	c #FFFFFF",
") 	c #F0F4FA",
"! 	c #3F6FBF",
"~ 	c #3769BC",
"{ 	c #A2B9E0",
"] 	c #FEFEFE",
"^ 	c #CFDCF2",
"/ 	c #A2BBE5",
"( 	c #E1E9F7",
"_ 	c #EBF0F8",
": 	c #6C91CE",
"< 	c #3B6CBD",
"[ 	c #FDFEFE",
"} 	c #A6BEE6",
"| 	c #ADC3E8",
"1 	c #C7D7EF",
"2 	c #CAD8F0",
"3 	c #FDFDFE",
"4 	c #88A6D7",
"5 	c #3467BB",
"6 	c #C3D2EB",
"7 	c #DBE5F5",
"8 	c #C2D3EE",
"9 	c #F1F5FB",
"0 	c #E2EAF7",
"a 	c #B3C8EA",
"b 	c #DFE7F6",
"c 	c #C0D1ED",
"d 	c #DBE4F3",
"e 	c #93AEDB",
"f 	c #FBFCFD",
"g 	c #A9C0E7",
"h 	c #B9CCEB",
"i 	c #CEDCF1",
"j 	c #97B4E2",
"k 	c #B1C6E9",
"l 	c #8CABDF",
"m 	c #FAFBFD",
"n 	c #B7CAEB",
"o 	c #F2F5FB",
"p 	c #4976C2",
"q 	c #F7F9FC",
"r 	c #AEC4E8",
"s 	c #D8E2F4",
"t 	c #9CB7E4",
"u 	c #D9E4F4",
"v 	c #93B0E1",
"w 	c #F6F8FC",
"x 	c #7CA0DB",
"y 	c #B8CBEB",
"z 	c #94B1E1",
"A 	c #7FA2DC",
"B 	c #BBCEEC",
"C 	c #9AB5E3",
"D 	c #A4BBE0",
"E 	c #D3DFF3",
"F 	c #C3D3EE",
"G 	c #99B5E3",
"H 	c #B6CAEB",
"I 	c #A1BBE5",
"J 	c #B5C9EA",
"K 	c #8EADE0",
"L 	c #7DA0DB",
"M 	c #86A7DE",
"N 	c #E6EDF8",
"O 	c #3567BB",
"P 	c #EEF2F9",
"Q 	c #9BB6E3",
"R 	c #E4EBF7",
"S 	c #B4C9EA",
"T 	c #A8C0E7",
"U 	c #BACDEC",
"V 	c #DEE7F6",
"W 	c #F3F6FB",
"X 	c #D9E3F4",
"Y 	c #85A6DD",
"Z 	c #7A9EDA",
"` 	c #EBF0F9",
" .	c #9FB9E4",
"..	c #F9FAFD",
"+.	c #5C85C8",
"@.	c #CBD9F0",
"#.	c #E7EEF8",
"$.	c #EEF3FA",
"%.	c #9EB8E4",
"&.	c #ABC2E8",
"*.	c #C5D5EF",
"=.	c #FBFCFE",
"-.	c #3467BC",
";.	c #3668BC",
">.	c #3568BC",
",.	c #5781C7",
"'.	c #EFF3FA",
").	c #F9FBFD",
"!.	c #BDCFED",
"~.	c #D5E1F3",
"{.	c #D4E0F3",
"].	c #EDF1FA",
"^.	c #91AFE1",
"/.	c #E9EFF9",
"(.	c #6990D2",
"_.	c #D3E3FE",
":.	c #D4E4FF",
"<.	c #638CCF",
"[.	c #ABC0E3",
"}.	c #92B0E1",
"|.	c #CDDBF1",
"1.	c #D3DFF2",
"2.	c #ACC5EE",
"3.	c #ABC4ED",
"4.	c #537EC5",
"5.	c #A3BCE5",
"6.	c #CFDCF1",
"7.	c #A1BAE5",
"8.	c #C4D4EF",
"9.	c #B7CBEB",
"0.	c #8FAEE0",
"a.	c #F8FAFD",
"b.	c #4E7BC6",
"c.	c #527FC8",
"d.	c #C7D6EF",
"e.	c #90AFE0",
"f.	c #8AAADF",
"g.	c #A2BCE5",
"h.	c #9AB6E3",
"i.	c #AFC4E9",
"j.	c #678DCC",
"k.	c #EEF2FA",
"l.	c #AAC1E7",
"m.	c #97B3E2",
"n.	c #82A4DC",
"o.	c #87A8DE",
"p.	c #D4DFF3",
"q.	c #B1C4E5",
"r.	c #F8FAFC",
"s.	c #CEDBF1",
"t.	c #7EA1DB",
"u.	c #789DDA",
"v.	c #C1D2EE",
"w.	c #7B9FDA",
"x.	c #8AAADE",
"y.	c #7295D0",
"z.	c #98B4E2",
"A.	c #E7EDF8",
"B.	c #96B2E2",
"C.	c #C8D7F0",
"D.	c #95B2E1",
"E.	c #EDF1F9",
"F.	c #B0C6E9",
"G.	c #E8EEF8",
"H.	c #BED0ED",
"I.	c #A3BAE0",
"J.	c #D5E0F3",
"K.	c #A7BFE6",
"L.	c #D2DDF0",
"M.	c #4D79C4",
"N.	c #517EC8",
"O.	c #4876C2",
"P.	c #91AFE0",
"Q.	c #4473C2",
"R.	c #A8C2EC",
"S.	c #9FBBE8",
"T.	c #91ACDA",
"U.	c #F0F4FB",
"V.	c #84A6DD",
"W.	c #B2C5E5",
"X.	c #8BABE0",
"Y.	c #D1E2FE",
"Z.	c #B2CAF0",
"`.	c #C0D0EA",
" +	c #DFE8F6",
".+	c #A5BEE6",
"++	c #5F87C9",
"@+	c #4373C2",
"#+	c #789CD8",
"$+	c #C5D3EB",
"%+	c #DCE6F5",
"&+	c #EBF1F9",
"*+	c #A3BCE6",
"=+	c #84A3D6",
"-+	c #9FB7DF",
";+	c #EAEFF8",
">+	c #6B90CD",
",+	c #5882C7",
"'+	c #BECEE9",
")+	c #E5ECF8",
"!+	c #EFF3F9",
"~+	c #9AB3DD",
"{+	c #3E6EBE",
"]+	c #4573C1",
"^+	c #7F9FD4",
"/+	c #A7BDE1",
"(+	c #C4D3EB",
"_+	c #B8CAE7",
":+	c #9BB4DD",
"                          . . . . . . .                         ",
"                    . . . . . . . . . . . . .                   ",
"                . . . . . . . . . . . . . . . . .               ",
"              . . . . . + @ # $ % & * = - . . . . .             ",
"            . . . . ; > , ' ' ' ' ' ' ' ) * ! . . . .           ",
"          . . . ~ { , ' ' ' ' ' ' ' ] ^ / ( _ : . . .           ",
"        . . . < % ' ' ' ' ' ' ' ' [ } | 1 2 ' 3 4 . .           ",
"      . . . 5 6 ' ' ' ' 7 8 9 ' ' 0 a ' b c ' ' ' d             ",
"      . . . e ' ' ' f g h i j [ ' ( k ' / l m 3 n o '           ",
"    . . . p q ' ' ' r ( ' s t u v w x y z A B g C ' ' '         ",
"    . . . D ' ' ' E F ' ' y G H ' ' I J K L M C N ( , '         ",
"    . . O P ' ' f Q , R S 7 T U V W X Y Z t `  ...Y W '         ",
"  . . . +.3 ' ' @.8 ' w #.a z $.z F ] %.U , ..&.*.=.' ' '       ",
". . -.;.>.,.' ' Q '.' ' 9 t W ] X ).t !.~.{.].^./.' ' ' '       ",
"  (._.:.<.[.' ' }.' ' =.t ` ' '.) ' {.c !.2 ..|.1.' ' ' '       ",
"  . 2.3.4.f ' ' 5.' ' c 1 ' S A v 6.m 7.8.9.0.i T a.' ' '       ",
"    b.c.$ ' ' ' &.' ] }., d. .e.&.f.W g.g.m o h.i.h ' ' '       ",
"    . j.' ' ' ' } ' k.l.q m.'.7 b n.| n.o.p.r p., @.' ' '       ",
"      q.r.' ' ' t ' 0 !.c s.' b b t.u.v.w.x.%.' ' ' ' ' '       ",
"    . . y.' ' ' z.] A.H B., ' I /.s.C.@.G D.].' ' ' ' ' '       ",
"    . . O E.' ' F.G.m n.H.' ' ' ' ' '  .h k ' ' ' ' ' ) .       ",
"    . . . I.' ' J.H.' F 9 ' ' ' ' ' q K.} 0 ' ' ' ' L.M.N..     ",
"    . . . O.q ' m P., ' ' ' ' w ' ' a./.e.] ' ' ] I.Q.R.S..     ",
"      . . . T.' ' J 1 ' ' ' U.V.G.' ' 2 H.' ' ' W.. X.Y.Z..     ",
"      . . . 5 `.' w }. +' ' .+^ .+' ' C 9 ' ' ' , ++. @+#+.     ",
"        . . . < $+' 9 B.%+s.} ' T /.&+*+' ' ' , =+. . . . .     ",
"          . . . ;.-+, w I  .w ' k.C m. +' ' ;+>+. . . .         ",
"            . . . . ,+'+f ' ' ' ' &+)+' !+~+{+. . . .           ",
"              . . . . . ]+^+/+> (+_+:+>+~ . . . . .             ",
"                . . . . . . . . . . . . . . . . .               ",
"                    . . . . . . . . . . . . .                   ",
"                          . . . . . . .                         "};
